<svg xmlns="http://www.w3.org/2000/svg" xmlns:xlink="http://www.w3.org/1999/xlink" viewBox="0 0 337.49 50"><defs><style>.cls-1{fill:url(#linear-gradient);}.cls-2{fill:url(#linear-gradient-2);}.cls-3{fill:url(#linear-gradient-3);}.cls-4{fill:url(#linear-gradient-4);}.cls-5{fill:url(#linear-gradient-5);}.cls-6{fill:url(#linear-gradient-6);}.cls-7{fill:url(#linear-gradient-7);}.cls-8{fill:url(#linear-gradient-8);}.cls-9{fill:url(#linear-gradient-9);}.cls-10{fill:url(#linear-gradient-10);}.cls-11{fill:url(#linear-gradient-11);}.cls-12{fill:url(#linear-gradient-12);}.cls-13{fill:url(#linear-gradient-13);}.cls-14{fill:url(#linear-gradient-14);}.cls-15{fill:url(#linear-gradient-15);}.cls-16{fill:url(#linear-gradient-16);}.cls-17{fill:url(#linear-gradient-17);}.cls-18{fill:url(#linear-gradient-18);}.cls-19{fill:url(#linear-gradient-19);}.cls-20{fill:url(#linear-gradient-20);}.cls-21{fill:url(#linear-gradient-21);}.cls-22{fill:url(#linear-gradient-22);}.cls-23{fill:url(#linear-gradient-23);}.cls-24{fill:url(#linear-gradient-24);}.cls-25{fill:url(#linear-gradient-25);}.cls-26{fill:#616161;}.cls-27{fill:#ff5012;}</style><linearGradient id="linear-gradient" x1="2.27" y1="42.87" x2="124.37" y2="42.87" gradientTransform="matrix(1, 0, -0.02, 1, 0, 0)" gradientUnits="userSpaceOnUse"><stop offset="0" stop-color="#ff5012"/><stop offset="1" stop-color="#ffd80a"/></linearGradient><linearGradient id="linear-gradient-2" x1="2.27" y1="40.22" x2="124.37" y2="40.22" xlink:href="#linear-gradient"/><linearGradient id="linear-gradient-3" x1="2.27" y1="21.43" x2="124.37" y2="21.43" xlink:href="#linear-gradient"/><linearGradient id="linear-gradient-4" x1="2.27" y1="42.87" x2="124.37" y2="42.87" xlink:href="#linear-gradient"/><linearGradient id="linear-gradient-5" x1="2.27" y1="1.35" x2="124.37" y2="1.35" xlink:href="#linear-gradient"/><linearGradient id="linear-gradient-6" x1="2.27" y1="1.35" x2="124.37" y2="1.35" xlink:href="#linear-gradient"/><linearGradient id="linear-gradient-7" x1="2.27" y1="1.35" x2="124.37" y2="1.35" xlink:href="#linear-gradient"/><linearGradient id="linear-gradient-8" x1="2.27" y1="5.85" x2="124.37" y2="5.85" xlink:href="#linear-gradient"/><linearGradient id="linear-gradient-9" x1="2.27" y1="5.85" x2="124.37" y2="5.85" xlink:href="#linear-gradient"/><linearGradient id="linear-gradient-10" x1="2.27" y1="5.85" x2="124.37" y2="5.85" xlink:href="#linear-gradient"/><linearGradient id="linear-gradient-11" x1="2.27" y1="10.34" x2="124.37" y2="10.34" xlink:href="#linear-gradient"/><linearGradient id="linear-gradient-12" x1="2.27" y1="10.34" x2="124.37" y2="10.34" xlink:href="#linear-gradient"/><linearGradient id="linear-gradient-13" x1="2.27" y1="14.84" x2="124.37" y2="14.84" xlink:href="#linear-gradient"/><linearGradient id="linear-gradient-14" x1="2.27" y1="14.84" x2="124.37" y2="14.84" xlink:href="#linear-gradient"/><linearGradient id="linear-gradient-15" x1="2.27" y1="14.84" x2="124.37" y2="14.84" xlink:href="#linear-gradient"/><linearGradient id="linear-gradient-16" x1="2.27" y1="19.33" x2="124.37" y2="19.33" xlink:href="#linear-gradient"/><linearGradient id="linear-gradient-17" x1="2.27" y1="19.33" x2="124.37" y2="19.33" xlink:href="#linear-gradient"/><linearGradient id="linear-gradient-18" x1="2.27" y1="19.33" x2="124.37" y2="19.33" xlink:href="#linear-gradient"/><linearGradient id="linear-gradient-19" x1="2.27" y1="23.83" x2="124.37" y2="23.83" xlink:href="#linear-gradient"/><linearGradient id="linear-gradient-20" x1="2.27" y1="23.83" x2="124.37" y2="23.83" xlink:href="#linear-gradient"/><linearGradient id="linear-gradient-21" x1="2.27" y1="23.83" x2="124.37" y2="23.83" xlink:href="#linear-gradient"/><linearGradient id="linear-gradient-22" x1="2.27" y1="28.32" x2="124.37" y2="28.32" xlink:href="#linear-gradient"/><linearGradient id="linear-gradient-23" x1="2.27" y1="28.32" x2="124.37" y2="28.32" xlink:href="#linear-gradient"/><linearGradient id="linear-gradient-24" x1="2.27" y1="32.82" x2="124.37" y2="32.82" xlink:href="#linear-gradient"/><linearGradient id="linear-gradient-25" x1="2.27" y1="32.82" x2="124.37" y2="32.82" xlink:href="#linear-gradient"/></defs><title>logo2</title><g id="レイヤー_2" data-name="レイヤー 2"><g id="レイヤー_1-2" data-name="レイヤー 1"><path class="cls-1" d="M27.9,37.25c-2.39-2.43-6.88-1.88-10,1.22s-3.78,7.59-1.39,10,6.87,1.89,10-1.22S30.28,39.68,27.9,37.25Zm-3.8,7.57c-1.4,1.38-3.4,1.62-4.46.54s-.78-3.07.62-4.45,3.4-1.62,4.46-.54S25.5,43.44,24.1,44.82Z"/><path class="cls-2" d="M77.07,37.57a8.2,8.2,0,0,1,.28,5.3H88.73a2.7,2.7,0,0,0,2.69-2.65h0a2.59,2.59,0,0,0-2.6-2.65Z"/><path class="cls-3" d="M62.69,37.57H41a1.51,1.51,0,0,1-1.4-2.08L52.82,2.08A1.51,1.51,0,0,0,51.42,0H21.8a5.74,5.74,0,0,0-4.3,2L1.4,20.32a4.56,4.56,0,0,0-1.15,3L.16,28.18H2.52l-.09,5.57H.06L0,37.3a5.46,5.46,0,0,0,5.47,5.57h7.87a12.35,12.35,0,0,1,3.32-5.62c4-4,9.78-4.66,12.82-1.56A7.38,7.38,0,0,1,31,42.87H59.67A12.25,12.25,0,0,1,62.69,37.57ZM35,20.31H8.74l0-2.82a2.68,2.68,0,0,1,.67-1.74L18.86,5a3.36,3.36,0,0,1,2.52-1.15H41.85Z"/><path class="cls-4" d="M74.23,37.25c-2.39-2.43-6.88-1.88-10,1.22s-3.78,7.59-1.39,10,6.87,1.89,10-1.22S76.61,39.68,74.23,37.25Zm-3.8,7.57C69,46.2,67,46.44,66,45.36s-.78-3.07.62-4.45,3.4-1.62,4.46-.54S71.83,43.44,70.43,44.82Z"/><path class="cls-5" d="M65.4,2.58H57a1.2,1.2,0,0,1-1.2-1.23A1.25,1.25,0,0,1,57.09.12h8.35a1.21,1.21,0,0,1,1.21,1.23A1.25,1.25,0,0,1,65.4,2.58Z"/><path class="cls-6" d="M81.28,2.58H71.64a1.2,1.2,0,0,1-1.2-1.23A1.25,1.25,0,0,1,71.69.12h9.63a1.21,1.21,0,0,1,1.21,1.23A1.25,1.25,0,0,1,81.28,2.58Z"/><path class="cls-7" d="M103.43,2.58H87.74a1.2,1.2,0,0,1-1.2-1.23A1.25,1.25,0,0,1,87.79.12h15.68a1.21,1.21,0,0,1,1.21,1.23A1.25,1.25,0,0,1,103.43,2.58Z"/><path class="cls-8" d="M95,7.07H64.39a1.19,1.19,0,0,1-1.2-1.22,1.25,1.25,0,0,1,1.24-1.23H95a1.2,1.2,0,0,1,1.2,1.23A1.25,1.25,0,0,1,95,7.07Z"/><path class="cls-9" d="M113.71,7.07H104a1.2,1.2,0,0,1-1.2-1.22A1.25,1.25,0,0,1,104,4.62h9.72A1.21,1.21,0,0,1,115,5.85,1.26,1.26,0,0,1,113.71,7.07Z"/><path class="cls-10" d="M133.6,7.07H120.83a1.2,1.2,0,0,1-1.21-1.22,1.25,1.25,0,0,1,1.25-1.23h12.78a1.2,1.2,0,0,1,1.2,1.23A1.25,1.25,0,0,1,133.6,7.07Z"/><path class="cls-11" d="M79.5,11.57H58.4a1.2,1.2,0,0,1-1.2-1.23,1.25,1.25,0,0,1,1.25-1.23H79.54a1.19,1.19,0,0,1,1.2,1.23A1.25,1.25,0,0,1,79.5,11.57Z"/><path class="cls-12" d="M108.51,11.57H86.9a1.21,1.21,0,0,1-1.21-1.23,1.25,1.25,0,0,1,1.25-1.23h21.61a1.21,1.21,0,0,1,1.21,1.23A1.25,1.25,0,0,1,108.51,11.57Z"/><path class="cls-13" d="M97.62,16.06H51.82a1.2,1.2,0,0,1-1.21-1.22,1.25,1.25,0,0,1,1.25-1.23H97.67a1.19,1.19,0,0,1,1.2,1.23A1.25,1.25,0,0,1,97.62,16.06Z"/><path class="cls-14" d="M109.23,16.06h-5.31a1.2,1.2,0,0,1-1.21-1.22A1.25,1.25,0,0,1,104,13.61h5.31a1.21,1.21,0,0,1,1.21,1.23A1.26,1.26,0,0,1,109.23,16.06Z"/><path class="cls-15" d="M128.27,16.06H116.4a1.2,1.2,0,0,1-1.21-1.22,1.25,1.25,0,0,1,1.25-1.23h11.87a1.21,1.21,0,0,1,1.21,1.23A1.25,1.25,0,0,1,128.27,16.06Z"/><path class="cls-16" d="M59.25,20.56H56.17A1.21,1.21,0,0,1,55,19.33a1.26,1.26,0,0,1,1.25-1.23H59.3a1.2,1.2,0,0,1,1.2,1.23A1.25,1.25,0,0,1,59.25,20.56Z"/><path class="cls-17" d="M74.88,20.56H64.64a1.21,1.21,0,0,1-1.21-1.23,1.26,1.26,0,0,1,1.25-1.23H74.92a1.21,1.21,0,0,1,1.21,1.23A1.27,1.27,0,0,1,74.88,20.56Z"/><path class="cls-18" d="M113.47,20.56H80.18A1.2,1.2,0,0,1,79,19.33a1.25,1.25,0,0,1,1.25-1.23h33.28a1.21,1.21,0,0,1,1.21,1.23A1.25,1.25,0,0,1,113.47,20.56Z"/><path class="cls-19" d="M55,25.05H48.37a1.2,1.2,0,0,1-1.21-1.22,1.26,1.26,0,0,1,1.25-1.23h6.66a1.2,1.2,0,0,1,1.2,1.23A1.25,1.25,0,0,1,55,25.05Z"/><path class="cls-20" d="M89.89,25.05H60.41a1.19,1.19,0,0,1-1.2-1.22,1.25,1.25,0,0,1,1.24-1.23H89.93a1.21,1.21,0,0,1,1.21,1.23A1.25,1.25,0,0,1,89.89,25.05Z"/><path class="cls-21" d="M106.42,25.05H95.55a1.2,1.2,0,0,1-1.21-1.22,1.25,1.25,0,0,1,1.25-1.23h10.87a1.19,1.19,0,0,1,1.2,1.23A1.25,1.25,0,0,1,106.42,25.05Z"/><path class="cls-22" d="M66.88,29.55H55.05a1.21,1.21,0,0,1-1.21-1.23,1.25,1.25,0,0,1,1.25-1.23H66.92a1.21,1.21,0,0,1,1.21,1.23A1.25,1.25,0,0,1,66.88,29.55Z"/><path class="cls-23" d="M97.35,29.55H72.94a1.2,1.2,0,0,1-1.2-1.23A1.25,1.25,0,0,1,73,27.09h24.4a1.21,1.21,0,0,1,1.21,1.23A1.26,1.26,0,0,1,97.35,29.55Z"/><path class="cls-24" d="M48.16,34H44.72a1.2,1.2,0,0,1-1.21-1.22,1.27,1.27,0,0,1,1.25-1.23H48.2a1.21,1.21,0,0,1,1.21,1.23A1.26,1.26,0,0,1,48.16,34Z"/><path class="cls-25" d="M59.08,34H53.32a1.19,1.19,0,0,1-1.2-1.22,1.25,1.25,0,0,1,1.24-1.23h5.77a1.2,1.2,0,0,1,1.2,1.23A1.25,1.25,0,0,1,59.08,34Z"/><path class="cls-25" d="M81.18,34H63.92a1.2,1.2,0,0,1-1.21-1.22A1.27,1.27,0,0,1,64,31.59H81.23a1.2,1.2,0,0,1,1.2,1.23A1.25,1.25,0,0,1,81.18,34Z"/><path class="cls-26" d="M156.07,15.88h-2.68l-2.68-7.42-1.42,7.42h-2.77l2.24-11.76h2.7l2.68,7.43,1.41-7.43h2.77Z"/><path class="cls-26" d="M164.14,15.88h-2.77l2.25-11.76h2.76Z"/><path class="cls-26" d="M172.37,15.88H169.6l2.25-11.76h2.76Z"/><path class="cls-26" d="M187.43,14.44a4.28,4.28,0,0,1-2,1.2,8.7,8.7,0,0,1-2.82.4,4.18,4.18,0,0,1-2.49-.75,3.88,3.88,0,0,1-1.42-2,6.75,6.75,0,0,1-.18-2.94l.07-.48a7.59,7.59,0,0,1,2-4.34A5,5,0,0,1,184.49,4a4.2,4.2,0,0,1,3,1.06,4.28,4.28,0,0,1,1.13,3H186a2.13,2.13,0,0,0-.45-1.37,1.56,1.56,0,0,0-1.15-.46,2.2,2.2,0,0,0-1.86.88,5.72,5.72,0,0,0-1,2.62,11.07,11.07,0,0,0-.2,2.26c.06,1.29.64,1.95,1.72,2a3,3,0,0,0,1.74-.48l.4-1.83h-1.92l.38-2h4.67Z"/><path class="cls-26" d="M198.93,13.68h-3.76l-1.08,2.2h-3l6.43-11.76h2.6l2,11.76h-2.87Zm-2.68-2.18h2.44l-.45-4.06Z"/><path class="cls-26" d="M216.14,6.31h-3.43l-1.82,9.57h-2.77L210,6.31h-3.37L207,4.12h9.55Z"/><path class="cls-26" d="M224.83,13.68h-3.76L220,15.88h-3.05l6.44-11.76H226l2,11.76h-2.88Zm-2.69-2.18h2.44l-.44-4.06Z"/><path class="cls-26" d="M239.6,15.88l2.24-11.76h3.46a4.42,4.42,0,0,1,2.65.8,4.25,4.25,0,0,1,1.58,2.19,5.94,5.94,0,0,1,.2,2.64l-.06.49a7.16,7.16,0,0,1-1.1,2.87,6.2,6.2,0,0,1-2.18,2,6,6,0,0,1-2.84.74Zm4.59-9.58-1.41,7.39h.8a2.81,2.81,0,0,0,2.31-1.1A6.34,6.34,0,0,0,247,9.24L247,9a3.19,3.19,0,0,0-.37-2,1.6,1.6,0,0,0-1.37-.7Z"/><path class="cls-26" d="M261.41,10.89h-4.32l-.55,2.81h5.12l-.42,2.18h-7.88L255.6,4.12h7.9l-.42,2.19H258l-.48,2.48h4.33Z"/><path class="cls-26" d="M268.92,13.7h4.79l-.41,2.18h-7.56L268,4.12h2.77Z"/><path class="cls-26" d="M280.79,15.88H278l2.25-11.76H283Z"/><path class="cls-26" d="M291.11,12.65l3.75-8.53H298l-5.89,11.76h-3L287.35,4.12h3Z"/><path class="cls-26" d="M308.11,10.89h-4.32l-.55,2.81h5.12l-.42,2.18h-7.88L302.3,4.12h7.9l-.42,2.19h-5.12l-.48,2.48h4.33Z"/><path class="cls-26" d="M317.54,11.72H316l-.8,4.16h-2.76l2.24-11.76h4.15a4.5,4.5,0,0,1,3.06.93,2.84,2.84,0,0,1,.92,2.55A3.84,3.84,0,0,1,322,9.72,4.56,4.56,0,0,1,320.21,11l1.5,4.71v.13h-2.95Zm-1.13-2.18,1.62,0a2,2,0,0,0,1.16-.33,1.82,1.82,0,0,0,.71-.88A2.1,2.1,0,0,0,320,7.26a1.06,1.06,0,0,0-1.13-1H317Z"/><path class="cls-26" d="M331.32,9.21l3.06-5.09h3.11l-5.21,7.67-.77,4.09H328.7l.83-4.36-2.22-7.39h2.88Z"/><path class="cls-27" d="M144.16,34.16c.52.37,2,1.58,2.34,1.9l-.58.72c-.32-.37-1.15-1.15-1.78-1.72l-.06,3.83h-.94l.07-3.93a11.56,11.56,0,0,1-2.41,2.8,4.21,4.21,0,0,0-.63-.69A10,10,0,0,0,143,33.75H140.5v-.84h2.73l0-1.51h-2.92l0-.84h1.75a8.5,8.5,0,0,0-.58-2.19l.77-.21a8.16,8.16,0,0,1,.63,2.25l-.52.15h2.39l-.4-.14a16.15,16.15,0,0,0,.84-2.3l1.07.34c0,.08-.13.13-.29.14a20.4,20.4,0,0,1-.85,2h2.07v.84h-2.89a.32.32,0,0,1-.14,0l0,1.48H147l0,.84h-2.81Zm2.85-6.9v.83h-6.31l0-.83h2.63l0-1.59,1.21.07c0,.1-.09.17-.28.2l0,1.32Zm6.57,3.3v.9h-1.68l-.13,7.43h-.94l.13-7.43H148.7V32c0,2.13-.35,4.95-2.44,6.93a2,2,0,0,0-.65-.67c1.89-1.8,2.15-4.26,2.18-6.28l.09-4.95.69.23a20.2,20.2,0,0,0,4-1.54l.94.73a.35.35,0,0,1-.3,0A24.07,24.07,0,0,1,148.76,28l0,2.57Z"/><path class="cls-27" d="M157.93,29.68a9.74,9.74,0,0,1,2.58,1.42l-.55.82a11.1,11.1,0,0,0-2.55-1.53Zm-.29,8.42a49.43,49.43,0,0,0,2.52-4.8l.74.55c-.69,1.57-1.62,3.4-2.28,4.54a.29.29,0,0,1,.07.2.25.25,0,0,1-.05.15Zm1.13-12.32a10.87,10.87,0,0,1,2.53,1.55l-.57.79a10.17,10.17,0,0,0-2.51-1.62ZM170,33.2l.51.08c0,.09,0,.2,0,.3-.26,3.3-.48,4.5-.89,4.92s-.64.39-1.42.39l-1.21,0a2.29,2.29,0,0,0-.23-.84c.7.07,1.36.08,1.61.08s.38,0,.5-.15.47-1.3.68-3.87h-6.19a11.08,11.08,0,0,1-2,1.89c-.16-.17-.44-.48-.63-.65a10.23,10.23,0,0,0,3-3.26H162.1l.1-5.35.6.2a18.32,18.32,0,0,0,2.2-1.27l.82.73c-.06.05-.09.05-.29.05a22.75,22.75,0,0,1-2.47,1.18l0,1.29h2.25l0,.79H163l0,1.55h6l0-1.55h-2.61l0-.79H169l0-1.5h-2.62v-.82H170l-.09,5.49h-4.94a.39.39,0,0,1-.3.08c-.19.36-.43.71-.66,1.07h6Zm-6.82,2.17a4.89,4.89,0,0,1-1.4,3.08l-.64-.46a4.46,4.46,0,0,0,1.3-2.79Zm1,2.71a10.76,10.76,0,0,0-.28-2.61l.7-.1a11.36,11.36,0,0,1,.32,2.59Zm2.23-.63a9.21,9.21,0,0,0-1-2.18l.63-.22a8.9,8.9,0,0,1,1,2.13Zm1.09-2.85a8.59,8.59,0,0,1,1.45,1.7l-.58.4A8.41,8.41,0,0,0,166.89,35Z"/><path class="cls-27" d="M182,28.26a.38.38,0,0,1-.36.23c-.59,4.42-2.14,8.28-4.5,8.28-1.19,0-2.26-1.2-2.22-3.45a6.38,6.38,0,0,1,6.52-6.27c4.11,0,5.84,2.6,5.79,5.38-.06,3.38-2,5-5.51,5.82a5.47,5.47,0,0,0-.58-.87c3.28-.63,5-2.22,5-4.91,0-2.35-1.43-4.48-4.76-4.48a3,3,0,0,0-.43,0Zm-1.36-.19a5.37,5.37,0,0,0-4.75,5.23c0,1.52.61,2.47,1.3,2.47C178.88,35.77,180.18,32,180.61,28.07Z"/><path class="cls-27" d="M194.43,31.36,194.35,36c1.08,1.69,3.15,1.69,5.83,1.69,1.56,0,3.38,0,4.5-.09a3,3,0,0,0-.32.93c-1,0-2.55.06-4,.06-3.13,0-5.09,0-6.47-1.76-.66.64-1.34,1.26-1.91,1.75a.18.18,0,0,1-.11.22l-.54-1c.62-.45,1.37-1.08,2-1.69l.07-3.87h-1.88l0-.91ZM192.61,26a10,10,0,0,1,2.31,2.37l-.79.6a10,10,0,0,0-2.26-2.45Zm6.62,11.31,0-1.5H195l0-.75h4.22l0-1h-3.15l.07-4.08h3.15l0-.94H195.7l0-.74h3.67l0-1.12,1.21.07c0,.1-.11.17-.29.2l0,.85H204v.74h-3.7l0,.94h3.19l-.07,4.08h-3.19v1h4.29v.75h-4.3l0,1.5Zm-2.89-10.45,0,1.11h-.87l0-1.86h8.87l0,1.86h-.9l0-1.11Zm.72,3.83,0,1h2.29l0-1ZM197,33.44h2.29l0-1H197Zm5.58-2.72h-2.32l0,1h2.32Zm-.05,2.72,0-1h-2.32l0,1Z"/><path class="cls-27" d="M211.74,31.36,211.66,36c1.08,1.7,3.11,1.7,5.67,1.7,1.54,0,3.35-.05,4.46-.12a3.37,3.37,0,0,0-.33,1c-1,0-2.55.07-4,.07-2.93,0-4.88,0-6.29-1.76-.7.62-1.47,1.26-2.09,1.75a.19.19,0,0,1-.13.22l-.54-1.05a25.94,25.94,0,0,0,2.28-1.73l.07-3.79h-2.09v-.91Zm-2-5.33a10.15,10.15,0,0,1,2.51,2.24l-.77.64A10.06,10.06,0,0,0,209,26.59Zm11.95,6.31h-3.78a5.22,5.22,0,0,0,3.75,3.74,3.23,3.23,0,0,0-.63.8,5.9,5.9,0,0,1-3.81-3.9,6.52,6.52,0,0,1-3.91,3.84,3.49,3.49,0,0,0-.63-.71c2.59-1.06,3.46-2.49,3.75-3.77h-3.81v-.88h3.92c0-.17,0-.34,0-.5l0-1.63h-3.46l0-.89h5.66l-.72-.32a16.49,16.49,0,0,0,1.46-2.45l1.13.43c0,.1-.14.13-.31.14a18.4,18.4,0,0,1-1.52,2.2h2.48l0,.89h-3.77l0,1.63a4.26,4.26,0,0,1,0,.5h4.21ZM215,28.44a8.16,8.16,0,0,0-1.26-2.39l.82-.34a7.57,7.57,0,0,1,1.3,2.34Z"/><path class="cls-27" d="M233.17,28.26a.38.38,0,0,1-.36.23c-.59,4.42-2.14,8.28-4.5,8.28-1.19,0-2.25-1.2-2.22-3.45a6.38,6.38,0,0,1,6.52-6.27c4.11,0,5.84,2.6,5.79,5.38-.06,3.38-2.05,5-5.51,5.82a4.86,4.86,0,0,0-.58-.87c3.29-.63,5-2.22,5-4.91,0-2.35-1.43-4.48-4.76-4.48a3,3,0,0,0-.43,0Zm-1.36-.19a5.37,5.37,0,0,0-4.75,5.23c0,1.52.61,2.47,1.3,2.47C230.08,35.77,231.38,32,231.81,28.07Z"/><path class="cls-27" d="M255.69,32.58h-5.25A14.49,14.49,0,0,0,256,37.19a4.1,4.1,0,0,0-.73.83,15.94,15.94,0,0,1-5.44-4.82l-.1,5.69h-1l.1-5.58a16.61,16.61,0,0,1-5.52,4.75,6,6,0,0,0-.68-.82,15,15,0,0,0,5.63-4.66H243l0-.95h5.78l0-2.62h-4.75l0-.94h4.75l0-2.39,1.29.08c0,.09-.1.17-.3.19l0,2.12h4.91l0,.94h-4.9l-.05,2.62h5.89Z"/><path class="cls-27" d="M272.8,33h-5.18a14.55,14.55,0,0,0,5.43,4.44,3.88,3.88,0,0,0-.72.83,16,16,0,0,1-5.46-4.79l-.09,5.39h-1l.09-5.3a16.56,16.56,0,0,1-5.56,4.65,4,4,0,0,0-.68-.81A15.17,15.17,0,0,0,265.19,33H260v-.91h5.88l.06-3.73h-5.17v-.93H266l0-1.76,1.28.09c0,.09-.09.17-.29.19l0,1.48h5.3v.93H267l-.06,3.73h5.91Zm-9.53-1.1A11.09,11.09,0,0,0,262,29.1l.85-.31a10.88,10.88,0,0,1,1.36,2.74Zm8.13-2.77a.38.38,0,0,1-.33.13,24.31,24.31,0,0,1-1.61,2.7s-.81-.36-.81-.36a19.86,19.86,0,0,0,1.58-2.91Z"/><path class="cls-27" d="M289.13,31.76l-.08,0a.34.34,0,0,1-.22-.09c-1.08.36-2.67.94-3.86,1.45,0,.33,0,.7,0,1.11s0,1-.07,1.53l-1,.05c.05-.51.09-1.16.1-1.72a5.4,5.4,0,0,0,0-.57c-1.62.78-3,1.74-3,2.59s1,1.22,2.92,1.22a30.49,30.49,0,0,0,3.57-.14v1c-.84.08-2.12.11-3.58.11-2.74,0-3.93-.65-3.91-2.11,0-1.25,1.69-2.46,3.85-3.52-.07-.9-.46-1.34-1-1.34-1,0-2.13.58-3.44,2a21.77,21.77,0,0,1-1.59,1.56l-.69-.7a10.18,10.18,0,0,0,3.68-5.25h-3.17l0-.92h3.42a17.86,17.86,0,0,0,.42-2l1.39.17c0,.15-.14.23-.36.26-.1.57-.24,1.07-.38,1.58a19.18,19.18,0,0,0,4.91-.83l.15,1a21.64,21.64,0,0,1-5.34.79,11.42,11.42,0,0,1-1.07,2.41h0a3.84,3.84,0,0,1,2.31-.93c1,0,1.57.7,1.73,1.85,1.21-.54,2.72-1.12,3.87-1.56Z"/><path class="cls-27" d="M304.15,31.18l.7.41a.33.33,0,0,1-.2.14,10.68,10.68,0,0,1-3.85,4.51A16.2,16.2,0,0,0,306.5,38a4.63,4.63,0,0,0-.63.91,15.66,15.66,0,0,1-6-2.12,20.13,20.13,0,0,1-6.08,2.08,3.27,3.27,0,0,0-.51-.91A20.22,20.22,0,0,0,299,36.23,10.29,10.29,0,0,1,296,32.44l.81-.3h-2.23l0-.94h4.92l0-2.33h-5.7v-.94h5.71l0-2.26,1.27.09c0,.09-.1.17-.29.19l0,2h5.76l0,.94H300.5l0,2.33H304Zm-7.29,1a8.8,8.8,0,0,0,3.08,3.56,9.25,9.25,0,0,0,3.41-3.56Z"/><path class="cls-27" d="M315.65,33.67a3,3,0,0,1,1.41-.33,1.26,1.26,0,0,1,1.23,1.45c0,.37-.06.81-.06,1.15,0,1.45.83,1.45,2,1.45a11.76,11.76,0,0,0,1.85-.13,8.93,8.93,0,0,0,0,1,18.26,18.26,0,0,1-1.86.09,9.85,9.85,0,0,1-1.47-.09,1.75,1.75,0,0,1-1.59-1.74c0-.33,0-1,.05-1.4,0-.6-.21-.94-.71-.94A4.19,4.19,0,0,0,314,35.37c-.84.81-2.41,2.38-2.91,3a7.54,7.54,0,0,0-.75-.76c1.37-1.38,5.92-5.72,7.39-7.12-1,.1-4.27.28-5.9.37a.26.26,0,0,1-.23.15l-.06-1.14c2-.05,5.74-.24,7.18-.37l.21-.12.81.75a.53.53,0,0,1-.34.11c-.91.84-2.69,2.45-3.76,3.46ZM319.32,28a30.37,30.37,0,0,0-6.07-1l.23-.95a29.38,29.38,0,0,1,6.13.94Z"/><path class="cls-27" d="M329.51,31.92a8.56,8.56,0,0,1,3.54-.83c2.26,0,3.66,1.32,3.62,3.41,0,2.58-2.33,4-5.19,4-1.85,0-3.1-.74-3.08-2a2.2,2.2,0,0,1,2.37-1.91,2.94,2.94,0,0,1,2.85,2.58,2.85,2.85,0,0,0,2-2.66c0-1.54-1.09-2.52-2.88-2.52a8.23,8.23,0,0,0-5.2,1.86c-.43.4-1,1-1.39,1.44l-.71-.72c1.3-1.34,5.44-5.23,7.4-7-.82.11-3.67.23-5.29.28a.51.51,0,0,1-.31.22l-.09-1.21c1.92,0,5.6-.16,6.64-.32l.21-.1.74.93a.71.71,0,0,1-.34.13c-1,.82-3.78,3.35-4.9,4.42Zm1.86,5.69a6,6,0,0,0,1.3-.15,2.16,2.16,0,0,0-2-2c-.74,0-1.4.4-1.41,1.06C329.25,37.36,330.43,37.61,331.37,37.61Z"/></g></g></svg>