<svg xmlns="http://www.w3.org/2000/svg" viewBox="0 0 281 50"><defs><style>.cls-1{fill:none;}.cls-2{fill:#f60;}.cls-3{fill:#1d2a38;}</style></defs><title>logo1</title><g id="レイヤー_2" data-name="レイヤー 2"><g id="レイヤー_1-2" data-name="レイヤー 1"><rect class="cls-1" x="7.02" y="20.34" width="9.32" height="9.32" transform="translate(-14.26 15.58) rotate(-45)"/><rect class="cls-1" x="20.34" y="7.02" width="9.32" height="9.32" transform="translate(-0.94 21.1) rotate(-45)"/><rect class="cls-1" x="20.34" y="33.66" width="9.32" height="9.32" transform="translate(-19.77 28.9) rotate(-45)"/><rect class="cls-1" x="33.66" y="20.34" width="9.32" height="9.32" transform="translate(-6.45 34.42) rotate(-45)"/><rect class="cls-2" x="29.09" y="18.63" width="9.32" height="3.6" transform="translate(-4.56 29.85) rotate(-45)"/><rect class="cls-2" x="15.77" y="31.95" width="9.32" height="3.6" transform="translate(-17.88 24.33) rotate(-45)"/><rect class="cls-2" x="24.91" y="14.45" width="9.32" height="3.6" transform="translate(-2.83 25.67) rotate(-45)"/><rect class="cls-2" x="11.59" y="27.77" width="9.32" height="3.6" transform="translate(-16.15 20.15) rotate(-45)"/><rect class="cls-2" x="14.45" y="15.77" width="3.6" height="9.32" transform="translate(-9.69 17.47) rotate(-45)"/><rect class="cls-2" x="18.63" y="11.59" width="3.6" height="9.32" transform="translate(-5.5 19.21) rotate(-45)"/><rect class="cls-2" x="31.95" y="24.91" width="3.6" height="9.32" transform="translate(-11.02 32.53) rotate(-45)"/><rect class="cls-2" x="27.77" y="29.09" width="3.6" height="9.32" transform="translate(-15.21 30.79) rotate(-45)"/><polygon class="cls-3" points="34.13 40.87 31.59 38.32 25 44.91 18.41 38.32 15.87 40.87 25 50 34.13 40.87"/><polygon class="cls-3" points="11.68 18.41 9.13 15.87 0 25 9.13 34.13 11.68 31.59 5.09 25 11.68 18.41"/><polygon class="cls-3" points="40.87 15.87 38.32 18.41 44.91 25 38.32 31.59 40.87 34.13 50 25 40.87 15.87"/><polygon class="cls-3" points="31.59 11.68 34.13 9.13 25 0 15.87 9.13 18.41 11.68 25 5.09 31.59 11.68"/><path d="M63.11,13.89v8.76H61V16.14a11.54,11.54,0,0,1-2.22,3V16.08A10.44,10.44,0,0,0,61,10.65V9.73H58.81v-2H61V5.8h2.08V7.73H65v2H63.11v1.49l2,2.23v2.91ZM71.8,17.3v5.33H69.64V17.31a10.39,10.39,0,0,1-4.23,5.12V19.71a9.54,9.54,0,0,0,3.39-4.77H65.69v-2h4V9.73h-2A13.68,13.68,0,0,1,67,12H65a14.91,14.91,0,0,0,1.19-5.87h1.88c0,.57,0,1.1-.11,1.56h1.69V5.8H71.8V7.65h3.46V9.73H71.8v3.19h3.81v2H72.5a9.4,9.4,0,0,0,3.11,4.77v2.72C74.19,21.68,72.68,19.56,71.8,17.3Z"/><path d="M87.51,10.45v-.24H77.2V8H87.51V5.8h2.26V8h1.7L91.1,5.8h1.67L93.14,8H94v2.17H89.77v.26c0,4.78,1.38,7.67,4.24,9.37v2.79C89.5,20.48,87.51,16.16,87.51,10.45Zm-10.31,12V20.3c1.24,0,2.47,0,3.7,0V14.89H77.2V12.81h9.74v2.08H83.17v5.24a17.18,17.18,0,0,0,4.23-.92v2.17C85,22.17,81.49,22.41,77.2,22.41Z"/><path d="M111,11.79v1.73H97.11V11.76c-.5.13-1,.24-1.51.33V9.73c3.09-.42,5.6-1.73,6.88-3.93h3c1.29,2.2,3.76,3.53,6.88,3.93v2.36C111.93,12,111.43,11.9,111,11.79Zm-1,10.84-.59-1.21c-2.47.9-5.12,1-9.83,1H95.6v-2h1.64l1.33-2.95h-3V15.4h16.8v2.06H101.14l-1.36,2.95a35.68,35.68,0,0,0,8.76-.72l-.74-1.58h2.49l2.11,4.52ZM104,7.75a11.71,11.71,0,0,1-5.9,3.73h11.77A11.67,11.67,0,0,1,104,7.75Z"/><path d="M118.56,16.56v6.07h-2.13V16.78A9.68,9.68,0,0,1,114,18.47V15.9a9.44,9.44,0,0,0,4.56-6.22H114v-2h2.36V5.8h2.13V7.64h2.26V9.57a10.57,10.57,0,0,1-2,4.73l2.43,2v2.56Zm2.69,5.85V20.15h3.66V12.68h-3.25v-2.3h3.25V5.8h2.23v4.58h3.26v2.3h-3.26v7.47h3.66v2.26Z"/><path d="M137,9.24a7.22,7.22,0,0,1-4.13,6V12.64c1.38-.9,2.21-2.7,2.21-5.67h9.94V9.24ZM138.91,22h-4.47V19.71h4.42c4.51,0,6.38-1.29,7-3.37-2.65-1-5.41-1.29-10-1.29V12.9c4.49,0,7.77.4,10.27,1.31V14l0-4.45h2.3v4.54C148.54,18.86,145.91,22,138.91,22Zm6.9-13.18V5.87h1.29V8.81Zm2.14,0V5.87h1.29V8.81Z"/><path d="M151.35,21.05V18.71c7,0,11.81.21,15.75,1.05v2.38C163,21.27,159.17,21.05,151.35,21.05ZM152,9.2V6.94h14.53V9.2Zm.33,5.72V12.64a94.36,94.36,0,0,1,13.85.68v2.39C163.13,15.14,159.28,14.92,152.31,14.92Z"/><path d="M169.91,15.84V13.38H185v2.46Z"/><path d="M198.88,21.9h-2.34V19.62h2.37c1.75,0,2.32-.63,2.32-2.47V10.47h-6.42c-.08,6-2.47,9.75-6.66,11.56V19.39c2.78-1.36,4.27-4.19,4.34-8.92h-4.38V8.15h4.38V6.4h2.32V8.15h8.74v9C203.55,20.83,202.19,21.9,198.88,21.9Z"/><path d="M211.35,22h-4.8v-2.3h4.6c7.1,0,8.46-4.19,8.46-8.55V7.41h2.3v3.78C221.91,15.75,220.83,22,211.35,22ZM206.8,9.31V7a21.3,21.3,0,0,1,8.08,1.68v2.52A21.33,21.33,0,0,0,206.8,9.31Z"/><path d="M227.24,22h-2.63A69.24,69.24,0,0,0,227.54,6.7h2.52C229.73,10.87,228.7,17.89,227.24,22Zm11.23,0A75.57,75.57,0,0,0,235,6.7h1.78a2.57,2.57,0,0,0,1.71,3.48A83.14,83.14,0,0,1,240.92,22Zm.86-12.58a1.85,1.85,0,0,1-1.87-1.86,1.88,1.88,0,1,1,3.75,0A1.85,1.85,0,0,1,239.33,9.46Zm0-2.73a.88.88,0,0,0-.86.87.9.9,0,0,0,.86.88.91.91,0,0,0,.89-.88A.89.89,0,0,0,239.33,6.73Z"/><path d="M243.27,21.77v-2.3H259v2.3ZM244,9.66V7.36h14.39v2.3Z"/><path d="M261.91,15.84V13.38H277v2.46Z"/><path d="M63.6,33.93v8H62.05v-8H58.66V32.39h8.39v1.54Z"/><path d="M75.16,42H74.1c-2.49,0-3.75-1.24-3.75-3.82V36.12c0-2.55,1.26-3.8,3.75-3.8h1.06c2.48,0,3.73,1.25,3.74,3.8v2.07C78.92,40.77,77.65,42,75.16,42Zm2.18-5.8c0-1.67-.61-2.35-2.26-2.35h-.91c-1.65,0-2.25.68-2.25,2.35V38.1c0,1.68.6,2.37,2.24,2.37h.92c1.66,0,2.28-.69,2.27-2.37Z"/><path d="M87.14,33.93v8H85.6v-8H82.2V32.39h8.4v1.54Z"/><path d="M101.06,41.94l-.61-1.89H95.88l-.62,1.89H93.65l3.2-9.62h2.63l3.21,9.62ZM98.16,33l-1.8,5.54H100Z"/><path d="M106.17,41.94V32.39h1.54v8h5.92v1.53Z"/><path d="M130.8,41.91l-.1-.93a3.64,3.64,0,0,1-2.7,1h-.85c-2.84,0-3.88-1.51-3.88-4.14V36.48c0-2.63,1.24-4.16,3.88-4.16H128c2.64,0,3.81,1.24,3.81,3.26v.17H130.2v-.17c0-1-.61-1.7-2.29-1.7h-.67c-1.77,0-2.41,1-2.41,2.6V37.8c0,1.68.64,2.59,2.41,2.59h.64c1.77,0,2.43-.82,2.43-2.15V38h-3V36.7h4.55v5.21Z"/><path d="M135.73,41.94V32.39h1.55v8h5.91v1.53Z"/><path d="M151.25,42h-1.06c-2.49,0-3.75-1.24-3.75-3.82V36.12c0-2.55,1.26-3.8,3.75-3.8h1.06c2.48,0,3.73,1.25,3.74,3.8v2.07C155,40.77,153.74,42,151.25,42Zm2.18-5.8c0-1.67-.61-2.35-2.25-2.35h-.92c-1.65,0-2.25.68-2.25,2.35V38.1c0,1.68.6,2.37,2.24,2.37h.93c1.65,0,2.27-.69,2.26-2.37Z"/><path d="M163.81,41.94h-5.1V32.39h4.85c2.29,0,3.14.89,3.14,2.46v.38A1.74,1.74,0,0,1,165.39,37a1.91,1.91,0,0,1,1.53,2v.42C166.92,41,166.1,41.94,163.81,41.94Zm1.24-6.88c0-.73-.4-1.12-1.6-1.12h-3.19v2.41h2.92c1.41,0,1.87-.36,1.87-1.1Zm.21,3.94c0-.94-.51-1.28-2.14-1.28h-2.86v2.67h3.37c1.16,0,1.63-.38,1.63-1.17Z"/><path d="M177.44,41.94l-.61-1.89h-4.57l-.62,1.89H170l3.2-9.62h2.63l3.21,9.62Zm-2.9-8.9-1.8,5.54h3.61Z"/><path d="M182.55,41.94V32.39h1.54v8H190v1.53Z"/><path d="M204.37,42h-.91c-2.76,0-3.81-1.45-3.81-4V36.34c0-2.59,1.23-4,3.81-4h.91c2.82,0,3.77,1.51,3.77,3.54v.31h-1.62v-.23c0-1.07-.43-2.06-2.27-2.06h-.71c-1.64,0-2.34.89-2.34,2.46V38c0,1.66.66,2.47,2.34,2.47h.71c1.79,0,2.26-.8,2.26-2.14V38h1.63v.35C208.14,40.39,207.42,42,204.37,42Z"/><path d="M216.36,42H215.3c-2.49,0-3.75-1.24-3.75-3.82V36.12c0-2.55,1.26-3.8,3.75-3.8h1.06c2.48,0,3.73,1.25,3.74,3.8v2.07C220.12,40.77,218.85,42,216.36,42Zm2.18-5.8c0-1.67-.61-2.35-2.25-2.35h-.91c-1.66,0-2.26.68-2.26,2.35V38.1c0,1.68.6,2.37,2.24,2.37h.93c1.65,0,2.28-.69,2.26-2.37Z"/><path d="M231.5,41.94v-8.3L229,41.94h-1.31l-2.47-8.3v8.3h-1.41V32.39h2.27l2.27,7.9,2.27-7.9h2.26v9.55Z"/><path d="M241.79,39h-3.36v2.9h-1.56V32.39h4.92c2.3,0,3.14,1.19,3.14,2.88v.94C244.93,37.84,244.11,39,241.79,39Zm1.58-3.61c0-1-.49-1.51-1.72-1.51h-3.22v3.56h3.22c1.22,0,1.72-.44,1.72-1.44Z"/><path d="M255.45,41.94l-.61-1.89h-4.57l-.62,1.89H248l3.2-9.62h2.63l3.21,9.62Zm-2.9-8.9-1.8,5.54h3.61Z"/><path d="M266.31,41.94l-4.23-7.82v7.82h-1.52V32.39h2.11l4.21,7.76V32.39h1.54v9.55Z"/><path d="M277.19,39.13v2.81h-1.56V39.06l-3.78-6.67h1.76l2.82,5,2.81-5H281Z"/></g></g></svg>