<svg xmlns="http://www.w3.org/2000/svg" viewBox="0 0 50 50"><defs><style>.cls-1{fill:#51a888;}.cls-2{fill:#fff;}</style></defs><title>tel2</title><g id="レイヤー_2" data-name="レイヤー 2"><g id="レイヤー_1-2" data-name="レイヤー 1"><circle class="cls-1" cx="25" cy="25" r="25"/><path class="cls-2" d="M22,9.17a2.24,2.24,0,0,1,.63,2.17c-.21,1.61-.45,3.22-.68,4.82a3.49,3.49,0,0,1-.2.72,1.47,1.47,0,0,1-1.53,1.06c-.53,0-1.06,0-1.59-.06a1.24,1.24,0,0,0-1.17.6,3.3,3.3,0,0,0-.59,1.8,20.41,20.41,0,0,0,2.64,10.59,13.62,13.62,0,0,0,1.32,1.89,2.27,2.27,0,0,0,1.24.73,1.13,1.13,0,0,0,1-.17l1.22-.84a1.58,1.58,0,0,1,2.26.16c.39.38.74.81,1.1,1.22.68.79,1.36,1.57,2,2.36.17.2.33.41.49.63a2.22,2.22,0,0,1,.5,2l-.29.53c-.35.36-.67.74-1,1.07a6.39,6.39,0,0,1-5.78,1.49,11.89,11.89,0,0,1-1.28-.41L21.3,41c-.34-.26-.69-.52-1-.79a16.65,16.65,0,0,1-3.82-5,39.3,39.3,0,0,1-2.8-7.09A38.59,38.59,0,0,1,12,18.93a15.68,15.68,0,0,1,.5-5.15c.14-.49.33-1,.5-1.45l.51-.92.16-.18A6.33,6.33,0,0,1,19.8,8.5a13.58,13.58,0,0,1,1.65.38Z"/><path class="cls-2" d="M32.78,32.65l-.22-.06a1.17,1.17,0,0,1-.52-1.9c.34-.39.71-.77,1-1.18a11.82,11.82,0,0,0,2.28-4.94,11.53,11.53,0,0,0,.23-3A12,12,0,0,0,32.8,14.4c-.25-.29-.52-.56-.77-.85a1.16,1.16,0,0,1,.42-1.84,3.19,3.19,0,0,1,.33-.11H33l.07,0a1.13,1.13,0,0,1,.62.32,14.32,14.32,0,0,1,4.18,9.23c0,.16,0,.32,0,.48v.93s0,.08,0,.12a13.8,13.8,0,0,1-.33,2.57,14.29,14.29,0,0,1-3.83,7,1.19,1.19,0,0,1-.68.36l-.05,0Z"/><path class="cls-2" d="M33.79,21.93a10.91,10.91,0,0,1-3.14,7.8,1.14,1.14,0,0,1-1.18.32,1.12,1.12,0,0,1-.82-.87,1.15,1.15,0,0,1,.33-1.1,8.24,8.24,0,0,0,1-1.21,8.46,8.46,0,0,0,1.34-3.34,8.6,8.6,0,0,0,.08-2.21,8.37,8.37,0,0,0-2.32-5.05,1.47,1.47,0,0,1-.42-.68,1.17,1.17,0,0,1,1.93-1.13,10.76,10.76,0,0,1,3.08,6.1C33.74,21.08,33.76,21.6,33.79,21.93Z"/><path class="cls-2" d="M29.53,22.28a6.44,6.44,0,0,1-1.92,4.49,1.17,1.17,0,0,1-1.69-1.61A4.3,4.3,0,0,0,27.09,23a4.17,4.17,0,0,0-1-3.77,1.59,1.59,0,0,1-.42-.69,1.19,1.19,0,0,1,.54-1.27,1.16,1.16,0,0,1,1.39.15A6.36,6.36,0,0,1,28.77,19,6.8,6.8,0,0,1,29.53,22.28Z"/></g></g></svg>